M48
; DRILL file {KiCad 8.0.0} date 2024-09-30T23:01:38+0200
; FORMAT={-:-/ absolute / inch / decimal}
; #@! TF.CreationDate,2024-09-30T23:01:38+02:00
; #@! TF.GenerationSoftware,Kicad,Pcbnew,8.0.0
; #@! TF.FileFunction,Plated,1,2,PTH
FMAT,2
INCH
; #@! TA.AperFunction,Plated,PTH,ViaDrill
T1C0.0118
; #@! TA.AperFunction,Plated,PTH,ComponentDrill
T2C0.0295
; #@! TA.AperFunction,Plated,PTH,ComponentDrill
T3C0.0315
; #@! TA.AperFunction,Plated,PTH,ComponentDrill
T4C0.0354
; #@! TA.AperFunction,Plated,PTH,ComponentDrill
T5C0.0394
; #@! TA.AperFunction,Plated,PTH,ComponentDrill
T6C0.0433
%
G90
G05
T1
X5.315Y-2.063
X5.3524Y-1.5413
X5.4685Y-1.7717
X5.6299Y-2.1063
X5.6417Y-1.6496
X5.7638Y-1.9843
T2
X6.0327Y-2.4157
X6.0827Y-2.4157
X6.1327Y-2.4157
X6.2886Y-2.4157
X6.3386Y-2.4157
X6.3886Y-2.4157
T3
X4.6531Y-2.0079
X4.9531Y-2.0079
X6.3854Y-1.6142
X6.3854Y-1.7323
X6.6854Y-1.6142
X6.6854Y-1.7323
X6.8504Y-2.3181
X6.8504Y-2.6181
T4
X4.7145Y-1.7323
X4.8719Y-1.7323
X6.5197Y-2.4657
X6.5697Y-2.4657
X6.6197Y-2.4657
X6.6697Y-2.4657
T5
X4.8228Y-1.2823
X4.8228Y-2.1823
X4.9228Y-1.2823
X4.9228Y-2.1823
X5.0228Y-1.2823
X5.0228Y-2.1823
X5.1228Y-1.2823
X5.1228Y-2.1823
X5.2228Y-1.2823
X5.2228Y-2.1823
X5.3228Y-1.2823
X5.3228Y-2.1823
X5.4228Y-1.2823
X5.4228Y-2.1823
X5.5228Y-1.2823
X5.5228Y-2.1823
X5.6228Y-1.2823
X5.6228Y-2.1823
X5.7228Y-1.2823
X5.7228Y-2.1823
X5.8228Y-1.2823
X5.8228Y-2.1823
X5.9228Y-1.2823
X5.9228Y-2.1823
X6.0228Y-1.2823
X6.0228Y-2.1823
X6.9882Y-2.3907
X6.9882Y-2.4907
T6
X4.6457Y-2.3819
X4.6457Y-2.5591
X4.9016Y-2.3819
X4.9016Y-2.5591
X5.1181Y-2.3819
X5.1181Y-2.5591
X5.374Y-2.3819
X5.374Y-2.5591
X5.5906Y-2.3819
X5.5906Y-2.5591
X5.8465Y-2.3819
X5.8465Y-2.5591
M30
