%TF.GenerationSoftware,KiCad,Pcbnew,8.0.0*%
%TF.CreationDate,2024-09-30T23:01:36+02:00*%
%TF.ProjectId,TTGOPager,5454474f-5061-4676-9572-2e6b69636164,rev?*%
%TF.SameCoordinates,Original*%
%TF.FileFunction,Legend,Top*%
%TF.FilePolarity,Positive*%
%FSLAX46Y46*%
G04 Gerber Fmt 4.6, Leading zero omitted, Abs format (unit mm)*
G04 Created by KiCad (PCBNEW 8.0.0) date 2024-09-30 23:01:36*
%MOMM*%
%LPD*%
G01*
G04 APERTURE LIST*
%ADD10C,0.150000*%
%ADD11C,0.100000*%
%ADD12C,0.120000*%
G04 APERTURE END LIST*
D10*
X172023333Y-41454819D02*
X171690000Y-40978628D01*
X171451905Y-41454819D02*
X171451905Y-40454819D01*
X171451905Y-40454819D02*
X171832857Y-40454819D01*
X171832857Y-40454819D02*
X171928095Y-40502438D01*
X171928095Y-40502438D02*
X171975714Y-40550057D01*
X171975714Y-40550057D02*
X172023333Y-40645295D01*
X172023333Y-40645295D02*
X172023333Y-40788152D01*
X172023333Y-40788152D02*
X171975714Y-40883390D01*
X171975714Y-40883390D02*
X171928095Y-40931009D01*
X171928095Y-40931009D02*
X171832857Y-40978628D01*
X171832857Y-40978628D02*
X171451905Y-40978628D01*
X172404286Y-40550057D02*
X172451905Y-40502438D01*
X172451905Y-40502438D02*
X172547143Y-40454819D01*
X172547143Y-40454819D02*
X172785238Y-40454819D01*
X172785238Y-40454819D02*
X172880476Y-40502438D01*
X172880476Y-40502438D02*
X172928095Y-40550057D01*
X172928095Y-40550057D02*
X172975714Y-40645295D01*
X172975714Y-40645295D02*
X172975714Y-40740533D01*
X172975714Y-40740533D02*
X172928095Y-40883390D01*
X172928095Y-40883390D02*
X172356667Y-41454819D01*
X172356667Y-41454819D02*
X172975714Y-41454819D01*
X127261905Y-51954819D02*
X127261905Y-50954819D01*
X127261905Y-50954819D02*
X127500000Y-50954819D01*
X127500000Y-50954819D02*
X127642857Y-51002438D01*
X127642857Y-51002438D02*
X127738095Y-51097676D01*
X127738095Y-51097676D02*
X127785714Y-51192914D01*
X127785714Y-51192914D02*
X127833333Y-51383390D01*
X127833333Y-51383390D02*
X127833333Y-51526247D01*
X127833333Y-51526247D02*
X127785714Y-51716723D01*
X127785714Y-51716723D02*
X127738095Y-51811961D01*
X127738095Y-51811961D02*
X127642857Y-51907200D01*
X127642857Y-51907200D02*
X127500000Y-51954819D01*
X127500000Y-51954819D02*
X127261905Y-51954819D01*
X128166667Y-50954819D02*
X128785714Y-50954819D01*
X128785714Y-50954819D02*
X128452381Y-51335771D01*
X128452381Y-51335771D02*
X128595238Y-51335771D01*
X128595238Y-51335771D02*
X128690476Y-51383390D01*
X128690476Y-51383390D02*
X128738095Y-51431009D01*
X128738095Y-51431009D02*
X128785714Y-51526247D01*
X128785714Y-51526247D02*
X128785714Y-51764342D01*
X128785714Y-51764342D02*
X128738095Y-51859580D01*
X128738095Y-51859580D02*
X128690476Y-51907200D01*
X128690476Y-51907200D02*
X128595238Y-51954819D01*
X128595238Y-51954819D02*
X128309524Y-51954819D01*
X128309524Y-51954819D02*
X128214286Y-51907200D01*
X128214286Y-51907200D02*
X128166667Y-51859580D01*
D11*
X178542580Y-40638095D02*
X177733057Y-40638095D01*
X177733057Y-40638095D02*
X177637819Y-40685714D01*
X177637819Y-40685714D02*
X177590200Y-40733333D01*
X177590200Y-40733333D02*
X177542580Y-40828571D01*
X177542580Y-40828571D02*
X177542580Y-41019047D01*
X177542580Y-41019047D02*
X177590200Y-41114285D01*
X177590200Y-41114285D02*
X177637819Y-41161904D01*
X177637819Y-41161904D02*
X177733057Y-41209523D01*
X177733057Y-41209523D02*
X178542580Y-41209523D01*
X177542580Y-42209523D02*
X177542580Y-41638095D01*
X177542580Y-41923809D02*
X178542580Y-41923809D01*
X178542580Y-41923809D02*
X178399723Y-41828571D01*
X178399723Y-41828571D02*
X178304485Y-41733333D01*
X178304485Y-41733333D02*
X178256866Y-41638095D01*
D10*
X131916667Y-58907200D02*
X132059524Y-58954819D01*
X132059524Y-58954819D02*
X132297619Y-58954819D01*
X132297619Y-58954819D02*
X132392857Y-58907200D01*
X132392857Y-58907200D02*
X132440476Y-58859580D01*
X132440476Y-58859580D02*
X132488095Y-58764342D01*
X132488095Y-58764342D02*
X132488095Y-58669104D01*
X132488095Y-58669104D02*
X132440476Y-58573866D01*
X132440476Y-58573866D02*
X132392857Y-58526247D01*
X132392857Y-58526247D02*
X132297619Y-58478628D01*
X132297619Y-58478628D02*
X132107143Y-58431009D01*
X132107143Y-58431009D02*
X132011905Y-58383390D01*
X132011905Y-58383390D02*
X131964286Y-58335771D01*
X131964286Y-58335771D02*
X131916667Y-58240533D01*
X131916667Y-58240533D02*
X131916667Y-58145295D01*
X131916667Y-58145295D02*
X131964286Y-58050057D01*
X131964286Y-58050057D02*
X132011905Y-58002438D01*
X132011905Y-58002438D02*
X132107143Y-57954819D01*
X132107143Y-57954819D02*
X132345238Y-57954819D01*
X132345238Y-57954819D02*
X132488095Y-58002438D01*
X132821429Y-57954819D02*
X133059524Y-58954819D01*
X133059524Y-58954819D02*
X133250000Y-58240533D01*
X133250000Y-58240533D02*
X133440476Y-58954819D01*
X133440476Y-58954819D02*
X133678572Y-57954819D01*
X133964286Y-57954819D02*
X134583333Y-57954819D01*
X134583333Y-57954819D02*
X134250000Y-58335771D01*
X134250000Y-58335771D02*
X134392857Y-58335771D01*
X134392857Y-58335771D02*
X134488095Y-58383390D01*
X134488095Y-58383390D02*
X134535714Y-58431009D01*
X134535714Y-58431009D02*
X134583333Y-58526247D01*
X134583333Y-58526247D02*
X134583333Y-58764342D01*
X134583333Y-58764342D02*
X134535714Y-58859580D01*
X134535714Y-58859580D02*
X134488095Y-58907200D01*
X134488095Y-58907200D02*
X134392857Y-58954819D01*
X134392857Y-58954819D02*
X134107143Y-58954819D01*
X134107143Y-58954819D02*
X134011905Y-58907200D01*
X134011905Y-58907200D02*
X133964286Y-58859580D01*
X131869048Y-67654819D02*
X131869048Y-66654819D01*
X131869048Y-66654819D02*
X132107143Y-66654819D01*
X132107143Y-66654819D02*
X132250000Y-66702438D01*
X132250000Y-66702438D02*
X132345238Y-66797676D01*
X132345238Y-66797676D02*
X132392857Y-66892914D01*
X132392857Y-66892914D02*
X132440476Y-67083390D01*
X132440476Y-67083390D02*
X132440476Y-67226247D01*
X132440476Y-67226247D02*
X132392857Y-67416723D01*
X132392857Y-67416723D02*
X132345238Y-67511961D01*
X132345238Y-67511961D02*
X132250000Y-67607200D01*
X132250000Y-67607200D02*
X132107143Y-67654819D01*
X132107143Y-67654819D02*
X131869048Y-67654819D01*
X133059524Y-66654819D02*
X133250000Y-66654819D01*
X133250000Y-66654819D02*
X133345238Y-66702438D01*
X133345238Y-66702438D02*
X133440476Y-66797676D01*
X133440476Y-66797676D02*
X133488095Y-66988152D01*
X133488095Y-66988152D02*
X133488095Y-67321485D01*
X133488095Y-67321485D02*
X133440476Y-67511961D01*
X133440476Y-67511961D02*
X133345238Y-67607200D01*
X133345238Y-67607200D02*
X133250000Y-67654819D01*
X133250000Y-67654819D02*
X133059524Y-67654819D01*
X133059524Y-67654819D02*
X132964286Y-67607200D01*
X132964286Y-67607200D02*
X132869048Y-67511961D01*
X132869048Y-67511961D02*
X132821429Y-67321485D01*
X132821429Y-67321485D02*
X132821429Y-66988152D01*
X132821429Y-66988152D02*
X132869048Y-66797676D01*
X132869048Y-66797676D02*
X132964286Y-66702438D01*
X132964286Y-66702438D02*
X133059524Y-66654819D01*
X133821429Y-66654819D02*
X134059524Y-67654819D01*
X134059524Y-67654819D02*
X134250000Y-66940533D01*
X134250000Y-66940533D02*
X134440476Y-67654819D01*
X134440476Y-67654819D02*
X134678572Y-66654819D01*
X135059524Y-67654819D02*
X135059524Y-66654819D01*
X135059524Y-66654819D02*
X135630952Y-67654819D01*
X135630952Y-67654819D02*
X135630952Y-66654819D01*
X119916667Y-58907200D02*
X120059524Y-58954819D01*
X120059524Y-58954819D02*
X120297619Y-58954819D01*
X120297619Y-58954819D02*
X120392857Y-58907200D01*
X120392857Y-58907200D02*
X120440476Y-58859580D01*
X120440476Y-58859580D02*
X120488095Y-58764342D01*
X120488095Y-58764342D02*
X120488095Y-58669104D01*
X120488095Y-58669104D02*
X120440476Y-58573866D01*
X120440476Y-58573866D02*
X120392857Y-58526247D01*
X120392857Y-58526247D02*
X120297619Y-58478628D01*
X120297619Y-58478628D02*
X120107143Y-58431009D01*
X120107143Y-58431009D02*
X120011905Y-58383390D01*
X120011905Y-58383390D02*
X119964286Y-58335771D01*
X119964286Y-58335771D02*
X119916667Y-58240533D01*
X119916667Y-58240533D02*
X119916667Y-58145295D01*
X119916667Y-58145295D02*
X119964286Y-58050057D01*
X119964286Y-58050057D02*
X120011905Y-58002438D01*
X120011905Y-58002438D02*
X120107143Y-57954819D01*
X120107143Y-57954819D02*
X120345238Y-57954819D01*
X120345238Y-57954819D02*
X120488095Y-58002438D01*
X120821429Y-57954819D02*
X121059524Y-58954819D01*
X121059524Y-58954819D02*
X121250000Y-58240533D01*
X121250000Y-58240533D02*
X121440476Y-58954819D01*
X121440476Y-58954819D02*
X121678572Y-57954819D01*
X122011905Y-58050057D02*
X122059524Y-58002438D01*
X122059524Y-58002438D02*
X122154762Y-57954819D01*
X122154762Y-57954819D02*
X122392857Y-57954819D01*
X122392857Y-57954819D02*
X122488095Y-58002438D01*
X122488095Y-58002438D02*
X122535714Y-58050057D01*
X122535714Y-58050057D02*
X122583333Y-58145295D01*
X122583333Y-58145295D02*
X122583333Y-58240533D01*
X122583333Y-58240533D02*
X122535714Y-58383390D01*
X122535714Y-58383390D02*
X121964286Y-58954819D01*
X121964286Y-58954819D02*
X122583333Y-58954819D01*
X120714286Y-66654819D02*
X120714286Y-67464342D01*
X120714286Y-67464342D02*
X120761905Y-67559580D01*
X120761905Y-67559580D02*
X120809524Y-67607200D01*
X120809524Y-67607200D02*
X120904762Y-67654819D01*
X120904762Y-67654819D02*
X121095238Y-67654819D01*
X121095238Y-67654819D02*
X121190476Y-67607200D01*
X121190476Y-67607200D02*
X121238095Y-67559580D01*
X121238095Y-67559580D02*
X121285714Y-67464342D01*
X121285714Y-67464342D02*
X121285714Y-66654819D01*
X121761905Y-67654819D02*
X121761905Y-66654819D01*
X121761905Y-66654819D02*
X122142857Y-66654819D01*
X122142857Y-66654819D02*
X122238095Y-66702438D01*
X122238095Y-66702438D02*
X122285714Y-66750057D01*
X122285714Y-66750057D02*
X122333333Y-66845295D01*
X122333333Y-66845295D02*
X122333333Y-66988152D01*
X122333333Y-66988152D02*
X122285714Y-67083390D01*
X122285714Y-67083390D02*
X122238095Y-67131009D01*
X122238095Y-67131009D02*
X122142857Y-67178628D01*
X122142857Y-67178628D02*
X121761905Y-67178628D01*
X143916667Y-58907200D02*
X144059524Y-58954819D01*
X144059524Y-58954819D02*
X144297619Y-58954819D01*
X144297619Y-58954819D02*
X144392857Y-58907200D01*
X144392857Y-58907200D02*
X144440476Y-58859580D01*
X144440476Y-58859580D02*
X144488095Y-58764342D01*
X144488095Y-58764342D02*
X144488095Y-58669104D01*
X144488095Y-58669104D02*
X144440476Y-58573866D01*
X144440476Y-58573866D02*
X144392857Y-58526247D01*
X144392857Y-58526247D02*
X144297619Y-58478628D01*
X144297619Y-58478628D02*
X144107143Y-58431009D01*
X144107143Y-58431009D02*
X144011905Y-58383390D01*
X144011905Y-58383390D02*
X143964286Y-58335771D01*
X143964286Y-58335771D02*
X143916667Y-58240533D01*
X143916667Y-58240533D02*
X143916667Y-58145295D01*
X143916667Y-58145295D02*
X143964286Y-58050057D01*
X143964286Y-58050057D02*
X144011905Y-58002438D01*
X144011905Y-58002438D02*
X144107143Y-57954819D01*
X144107143Y-57954819D02*
X144345238Y-57954819D01*
X144345238Y-57954819D02*
X144488095Y-58002438D01*
X144821429Y-57954819D02*
X145059524Y-58954819D01*
X145059524Y-58954819D02*
X145250000Y-58240533D01*
X145250000Y-58240533D02*
X145440476Y-58954819D01*
X145440476Y-58954819D02*
X145678572Y-57954819D01*
X146583333Y-58954819D02*
X146011905Y-58954819D01*
X146297619Y-58954819D02*
X146297619Y-57954819D01*
X146297619Y-57954819D02*
X146202381Y-58097676D01*
X146202381Y-58097676D02*
X146107143Y-58192914D01*
X146107143Y-58192914D02*
X146011905Y-58240533D01*
X145154762Y-66654819D02*
X145345238Y-66654819D01*
X145345238Y-66654819D02*
X145440476Y-66702438D01*
X145440476Y-66702438D02*
X145535714Y-66797676D01*
X145535714Y-66797676D02*
X145583333Y-66988152D01*
X145583333Y-66988152D02*
X145583333Y-67321485D01*
X145583333Y-67321485D02*
X145535714Y-67511961D01*
X145535714Y-67511961D02*
X145440476Y-67607200D01*
X145440476Y-67607200D02*
X145345238Y-67654819D01*
X145345238Y-67654819D02*
X145154762Y-67654819D01*
X145154762Y-67654819D02*
X145059524Y-67607200D01*
X145059524Y-67607200D02*
X144964286Y-67511961D01*
X144964286Y-67511961D02*
X144916667Y-67321485D01*
X144916667Y-67321485D02*
X144916667Y-66988152D01*
X144916667Y-66988152D02*
X144964286Y-66797676D01*
X144964286Y-66797676D02*
X145059524Y-66702438D01*
X145059524Y-66702438D02*
X145154762Y-66654819D01*
X146011905Y-67654819D02*
X146011905Y-66654819D01*
X146583333Y-67654819D02*
X146154762Y-67083390D01*
X146583333Y-66654819D02*
X146011905Y-67226247D01*
X158904761Y-66050057D02*
X158809523Y-66002438D01*
X158809523Y-66002438D02*
X158714285Y-65907200D01*
X158714285Y-65907200D02*
X158571428Y-65764342D01*
X158571428Y-65764342D02*
X158476190Y-65716723D01*
X158476190Y-65716723D02*
X158380952Y-65716723D01*
X158428571Y-65954819D02*
X158333333Y-65907200D01*
X158333333Y-65907200D02*
X158238095Y-65811961D01*
X158238095Y-65811961D02*
X158190476Y-65621485D01*
X158190476Y-65621485D02*
X158190476Y-65288152D01*
X158190476Y-65288152D02*
X158238095Y-65097676D01*
X158238095Y-65097676D02*
X158333333Y-65002438D01*
X158333333Y-65002438D02*
X158428571Y-64954819D01*
X158428571Y-64954819D02*
X158619047Y-64954819D01*
X158619047Y-64954819D02*
X158714285Y-65002438D01*
X158714285Y-65002438D02*
X158809523Y-65097676D01*
X158809523Y-65097676D02*
X158857142Y-65288152D01*
X158857142Y-65288152D02*
X158857142Y-65621485D01*
X158857142Y-65621485D02*
X158809523Y-65811961D01*
X158809523Y-65811961D02*
X158714285Y-65907200D01*
X158714285Y-65907200D02*
X158619047Y-65954819D01*
X158619047Y-65954819D02*
X158428571Y-65954819D01*
X159238095Y-65050057D02*
X159285714Y-65002438D01*
X159285714Y-65002438D02*
X159380952Y-64954819D01*
X159380952Y-64954819D02*
X159619047Y-64954819D01*
X159619047Y-64954819D02*
X159714285Y-65002438D01*
X159714285Y-65002438D02*
X159761904Y-65050057D01*
X159761904Y-65050057D02*
X159809523Y-65145295D01*
X159809523Y-65145295D02*
X159809523Y-65240533D01*
X159809523Y-65240533D02*
X159761904Y-65383390D01*
X159761904Y-65383390D02*
X159190476Y-65954819D01*
X159190476Y-65954819D02*
X159809523Y-65954819D01*
X152904761Y-66050057D02*
X152809523Y-66002438D01*
X152809523Y-66002438D02*
X152714285Y-65907200D01*
X152714285Y-65907200D02*
X152571428Y-65764342D01*
X152571428Y-65764342D02*
X152476190Y-65716723D01*
X152476190Y-65716723D02*
X152380952Y-65716723D01*
X152428571Y-65954819D02*
X152333333Y-65907200D01*
X152333333Y-65907200D02*
X152238095Y-65811961D01*
X152238095Y-65811961D02*
X152190476Y-65621485D01*
X152190476Y-65621485D02*
X152190476Y-65288152D01*
X152190476Y-65288152D02*
X152238095Y-65097676D01*
X152238095Y-65097676D02*
X152333333Y-65002438D01*
X152333333Y-65002438D02*
X152428571Y-64954819D01*
X152428571Y-64954819D02*
X152619047Y-64954819D01*
X152619047Y-64954819D02*
X152714285Y-65002438D01*
X152714285Y-65002438D02*
X152809523Y-65097676D01*
X152809523Y-65097676D02*
X152857142Y-65288152D01*
X152857142Y-65288152D02*
X152857142Y-65621485D01*
X152857142Y-65621485D02*
X152809523Y-65811961D01*
X152809523Y-65811961D02*
X152714285Y-65907200D01*
X152714285Y-65907200D02*
X152619047Y-65954819D01*
X152619047Y-65954819D02*
X152428571Y-65954819D01*
X153809523Y-65954819D02*
X153238095Y-65954819D01*
X153523809Y-65954819D02*
X153523809Y-64954819D01*
X153523809Y-64954819D02*
X153428571Y-65097676D01*
X153428571Y-65097676D02*
X153333333Y-65192914D01*
X153333333Y-65192914D02*
X153238095Y-65240533D01*
X176690476Y-58849819D02*
X176690476Y-57849819D01*
X176690476Y-57849819D02*
X177023809Y-58564104D01*
X177023809Y-58564104D02*
X177357142Y-57849819D01*
X177357142Y-57849819D02*
X177357142Y-58849819D01*
X178357142Y-58849819D02*
X177785714Y-58849819D01*
X178071428Y-58849819D02*
X178071428Y-57849819D01*
X178071428Y-57849819D02*
X177976190Y-57992676D01*
X177976190Y-57992676D02*
X177880952Y-58087914D01*
X177880952Y-58087914D02*
X177785714Y-58135533D01*
X172454819Y-66618094D02*
X171454819Y-66618094D01*
X171454819Y-66618094D02*
X171454819Y-66379999D01*
X171454819Y-66379999D02*
X171502438Y-66237142D01*
X171502438Y-66237142D02*
X171597676Y-66141904D01*
X171597676Y-66141904D02*
X171692914Y-66094285D01*
X171692914Y-66094285D02*
X171883390Y-66046666D01*
X171883390Y-66046666D02*
X172026247Y-66046666D01*
X172026247Y-66046666D02*
X172216723Y-66094285D01*
X172216723Y-66094285D02*
X172311961Y-66141904D01*
X172311961Y-66141904D02*
X172407200Y-66237142D01*
X172407200Y-66237142D02*
X172454819Y-66379999D01*
X172454819Y-66379999D02*
X172454819Y-66618094D01*
X171550057Y-65665713D02*
X171502438Y-65618094D01*
X171502438Y-65618094D02*
X171454819Y-65522856D01*
X171454819Y-65522856D02*
X171454819Y-65284761D01*
X171454819Y-65284761D02*
X171502438Y-65189523D01*
X171502438Y-65189523D02*
X171550057Y-65141904D01*
X171550057Y-65141904D02*
X171645295Y-65094285D01*
X171645295Y-65094285D02*
X171740533Y-65094285D01*
X171740533Y-65094285D02*
X171883390Y-65141904D01*
X171883390Y-65141904D02*
X172454819Y-65713332D01*
X172454819Y-65713332D02*
X172454819Y-65094285D01*
X166766905Y-59124819D02*
X166766905Y-58124819D01*
X166766905Y-58124819D02*
X167005000Y-58124819D01*
X167005000Y-58124819D02*
X167147857Y-58172438D01*
X167147857Y-58172438D02*
X167243095Y-58267676D01*
X167243095Y-58267676D02*
X167290714Y-58362914D01*
X167290714Y-58362914D02*
X167338333Y-58553390D01*
X167338333Y-58553390D02*
X167338333Y-58696247D01*
X167338333Y-58696247D02*
X167290714Y-58886723D01*
X167290714Y-58886723D02*
X167243095Y-58981961D01*
X167243095Y-58981961D02*
X167147857Y-59077200D01*
X167147857Y-59077200D02*
X167005000Y-59124819D01*
X167005000Y-59124819D02*
X166766905Y-59124819D01*
X168290714Y-59124819D02*
X167719286Y-59124819D01*
X168005000Y-59124819D02*
X168005000Y-58124819D01*
X168005000Y-58124819D02*
X167909762Y-58267676D01*
X167909762Y-58267676D02*
X167814524Y-58362914D01*
X167814524Y-58362914D02*
X167719286Y-58410533D01*
X127178148Y-44880952D02*
X127225767Y-44738095D01*
X127225767Y-44738095D02*
X127273386Y-44690476D01*
X127273386Y-44690476D02*
X127368624Y-44642857D01*
X127368624Y-44642857D02*
X127511481Y-44642857D01*
X127511481Y-44642857D02*
X127606719Y-44690476D01*
X127606719Y-44690476D02*
X127654339Y-44738095D01*
X127654339Y-44738095D02*
X127701958Y-44833333D01*
X127701958Y-44833333D02*
X127701958Y-45214285D01*
X127701958Y-45214285D02*
X126701958Y-45214285D01*
X126701958Y-45214285D02*
X126701958Y-44880952D01*
X126701958Y-44880952D02*
X126749577Y-44785714D01*
X126749577Y-44785714D02*
X126797196Y-44738095D01*
X126797196Y-44738095D02*
X126892434Y-44690476D01*
X126892434Y-44690476D02*
X126987672Y-44690476D01*
X126987672Y-44690476D02*
X127082910Y-44738095D01*
X127082910Y-44738095D02*
X127130529Y-44785714D01*
X127130529Y-44785714D02*
X127178148Y-44880952D01*
X127178148Y-44880952D02*
X127178148Y-45214285D01*
X126701958Y-44309523D02*
X126701958Y-43642857D01*
X126701958Y-43642857D02*
X127701958Y-44309523D01*
X127701958Y-44309523D02*
X127701958Y-43642857D01*
X127701958Y-42738095D02*
X127701958Y-43309523D01*
X127701958Y-43023809D02*
X126701958Y-43023809D01*
X126701958Y-43023809D02*
X126844815Y-43119047D01*
X126844815Y-43119047D02*
X126940053Y-43214285D01*
X126940053Y-43214285D02*
X126987672Y-43309523D01*
X117641005Y-47680951D02*
X117641005Y-46919047D01*
X118021958Y-47299999D02*
X117260053Y-47299999D01*
D12*
%TO.C,R2*%
X162730000Y-39630000D02*
X169270000Y-39630000D01*
X162730000Y-39960000D02*
X162730000Y-39630000D01*
X162730000Y-42040000D02*
X162730000Y-42370000D01*
X162730000Y-42370000D02*
X169270000Y-42370000D01*
X169270000Y-39630000D02*
X169270000Y-39960000D01*
X169270000Y-42370000D02*
X169270000Y-42040000D01*
%TO.C,R1*%
X162730000Y-42630000D02*
X169270000Y-42630000D01*
X162730000Y-42960000D02*
X162730000Y-42630000D01*
X162730000Y-45040000D02*
X162730000Y-45370000D01*
X162730000Y-45370000D02*
X169270000Y-45370000D01*
X169270000Y-42630000D02*
X169270000Y-42960000D01*
X169270000Y-45370000D02*
X169270000Y-45040000D01*
%TO.C,D3*%
X124770000Y-51000000D02*
X124120000Y-51000000D01*
X124120000Y-52120000D02*
X124120000Y-49880000D01*
X124120000Y-49880000D02*
X119880000Y-49880000D01*
X120720000Y-49880000D02*
X120720000Y-52120000D01*
X120600000Y-49880000D02*
X120600000Y-52120000D01*
X120480000Y-49880000D02*
X120480000Y-52120000D01*
X119880000Y-52120000D02*
X124120000Y-52120000D01*
X119880000Y-49880000D02*
X119880000Y-52120000D01*
X119230000Y-51000000D02*
X119880000Y-51000000D01*
%TO.C,U1*%
D11*
X179512700Y-30500000D02*
X115487300Y-30500000D01*
X115487300Y-57500000D01*
X179512700Y-57500000D01*
X179512700Y-30500000D01*
D12*
X151710000Y-56760000D02*
X121170000Y-56760000D01*
D11*
X177500000Y-55500000D02*
X177500000Y-52000000D01*
X179500000Y-55500000D02*
X177500000Y-55500000D01*
D12*
X121170000Y-54100000D02*
X121170000Y-56760000D01*
X151710000Y-54100000D02*
X151710000Y-56760000D01*
X151710000Y-54100000D02*
X121170000Y-54100000D01*
X152980000Y-54100000D02*
X154310000Y-54100000D01*
X154310000Y-54100000D02*
X154310000Y-55430000D01*
D11*
X177500000Y-52000000D02*
X179500000Y-52000000D01*
X121500000Y-51000000D02*
X121500000Y-37000000D01*
X159500000Y-51000000D02*
X121500000Y-51000000D01*
X159500000Y-44000000D02*
X159500000Y-51000000D01*
X177500000Y-40000000D02*
X179500000Y-40000000D01*
X121500000Y-37000000D02*
X159500000Y-37000000D01*
X159500000Y-37000000D02*
X159500000Y-44000000D01*
D12*
X151710000Y-33900000D02*
X121170000Y-33900000D01*
D11*
X177500000Y-31500000D02*
X177500000Y-40000000D01*
X179500000Y-31500000D02*
X177500000Y-31500000D01*
D12*
X121170000Y-31240000D02*
X121170000Y-33900000D01*
X151710000Y-31240000D02*
X151710000Y-33900000D01*
X151710000Y-31240000D02*
X121170000Y-31240000D01*
X152980000Y-31240000D02*
X154310000Y-31240000D01*
X154310000Y-31240000D02*
X154310000Y-32570000D01*
D11*
X169500000Y-30500000D02*
X169500000Y-26000000D01*
X163500000Y-26000000D02*
X163500000Y-30500000D01*
X169500000Y-26000000D02*
X163500000Y-26000000D01*
D12*
%TO.C,SW3*%
X136750000Y-63500000D02*
X136750000Y-62000000D01*
X135500000Y-59500000D02*
X131000000Y-59500000D01*
X131000000Y-66000000D02*
X135500000Y-66000000D01*
X129750000Y-62000000D02*
X129750000Y-63500000D01*
%TO.C,SW2*%
X117750000Y-62000000D02*
X117750000Y-63500000D01*
X119000000Y-66000000D02*
X123500000Y-66000000D01*
X123500000Y-59500000D02*
X119000000Y-59500000D01*
X124750000Y-63500000D02*
X124750000Y-62000000D01*
%TO.C,SW1*%
X148750000Y-63500000D02*
X148750000Y-62000000D01*
X147500000Y-59500000D02*
X143000000Y-59500000D01*
X143000000Y-66000000D02*
X147500000Y-66000000D01*
X141750000Y-62000000D02*
X141750000Y-63500000D01*
%TO.C,Q2*%
X159200000Y-63210000D02*
X162800000Y-63210000D01*
X159161522Y-63198478D02*
G75*
G02*
X161000000Y-58760000I1838478J1838478D01*
G01*
X161000000Y-58760000D02*
G75*
G02*
X162838478Y-63198478I0J-2600000D01*
G01*
%TO.C,Q1*%
X152700000Y-63210000D02*
X156300000Y-63210000D01*
X152661522Y-63198478D02*
G75*
G02*
X154500000Y-58760000I1838478J1838478D01*
G01*
X154500000Y-58760000D02*
G75*
G02*
X156338478Y-63198478I0J-2600000D01*
G01*
%TO.C,M1*%
X176170000Y-59395000D02*
X177500000Y-59395000D01*
X176170000Y-60725000D02*
X176170000Y-59395000D01*
X176170000Y-61995000D02*
X176170000Y-64595000D01*
X176170000Y-61995000D02*
X178830000Y-61995000D01*
X176170000Y-64595000D02*
X178830000Y-64595000D01*
X178830000Y-61995000D02*
X178830000Y-64595000D01*
%TO.C,D2*%
X174000000Y-65460000D02*
X174000000Y-64810000D01*
X172880000Y-64810000D02*
X175120000Y-64810000D01*
X175120000Y-64810000D02*
X175120000Y-60570000D01*
X175120000Y-61410000D02*
X172880000Y-61410000D01*
X175120000Y-61290000D02*
X172880000Y-61290000D01*
X175120000Y-61170000D02*
X172880000Y-61170000D01*
X172880000Y-60570000D02*
X172880000Y-64810000D01*
X175120000Y-60570000D02*
X172880000Y-60570000D01*
X174000000Y-59920000D02*
X174000000Y-60570000D01*
%TO.C,D1*%
X164945000Y-61085000D02*
X164945000Y-61550000D01*
X164945000Y-63710000D02*
X164945000Y-64175000D01*
X164945001Y-61085170D02*
G75*
G02*
X170292814Y-61549173I2559999J-1544830D01*
G01*
X165250317Y-61550000D02*
G75*
G02*
X169759478Y-61549572I2254683J-1080000D01*
G01*
X169759479Y-63710429D02*
G75*
G02*
X165250316Y-63710000I-2254479J1080429D01*
G01*
X170292814Y-63710827D02*
G75*
G02*
X164945001Y-64174830I-2787814J1080827D01*
G01*
%TO.C,BZ1*%
X126367139Y-44000000D02*
G75*
G02*
X117127139Y-44000000I-4620000J0D01*
G01*
X117127139Y-44000000D02*
G75*
G02*
X126367139Y-44000000I4620000J0D01*
G01*
%TD*%
M02*
